<mxfile host="app.diagrams.net" modified="2022-04-03T13:13:25.007Z" agent="5.0 (Macintosh; Intel Mac OS X 10_15_7) AppleWebKit/537.36 (KHTML, like Gecko) Chrome/100.0.4896.60 Safari/537.36" etag="U7JeSI_ohVqQy0XmTPPa" version="17.2.4" type="github">
  <diagram id="Fxfpp7fXGIrcWq5Qtdkc" name="Page-1">
    <mxGraphModel dx="946" dy="504" grid="1" gridSize="10" guides="1" tooltips="1" connect="1" arrows="1" fold="1" page="1" pageScale="1" pageWidth="850" pageHeight="1100" math="0" shadow="0">
      <root>
        <mxCell id="0" />
        <mxCell id="1" parent="0" />
        <mxCell id="_Z8c4-ehFcjaLU1eM7__-2" value="12" style="rounded=0;whiteSpace=wrap;html=1;fontSize=12;" vertex="1" parent="1">
          <mxGeometry x="320" y="50" width="470" height="730" as="geometry" />
        </mxCell>
        <mxCell id="_Z8c4-ehFcjaLU1eM7__-3" value="T-Low food&lt;br style=&quot;font-size: 12px;&quot;&gt;delivery software" style="text;html=1;strokeColor=none;fillColor=none;align=center;verticalAlign=middle;whiteSpace=wrap;rounded=0;fontSize=12;" vertex="1" parent="1">
          <mxGeometry x="507.5" y="20" width="95" height="30" as="geometry" />
        </mxCell>
        <mxCell id="_Z8c4-ehFcjaLU1eM7__-4" value="&lt;span lang=&quot;EN-US&quot; class=&quot;TextRun SCXW78511259 BCX0&quot; style=&quot;animation: 0s ease 0s 1 normal none running none; appearance: none; backface-visibility: visible; background: none 0% 0% / auto repeat scroll padding-box border-box rgba(0, 0, 0, 0); border-color: rgb(0, 0, 0); border-collapse: collapse; border-width: 0px; border-style: none; border-spacing: 0px; border-radius: 0px; box-shadow: none; box-sizing: content-box; caption-side: top; clear: none; clip: auto; content: normal; cursor: text; direction: ltr; display: inline; empty-cells: show; float: none; font-family: calibri, calibri_embeddedfont, calibri_msfontservice, sans-serif; font-size: 12px; height: auto; line-height: 18.3458px; list-style: outside none disc; margin: 0px; max-height: none; max-width: none; min-height: 0px; min-width: 0px; opacity: 1; outline: rgb(0, 0, 0) none 0px; overflow: visible; overflow-wrap: break-word; padding: 0px; perspective: none; perspective-origin: 0px 0px; position: static; resize: none; speak: normal; table-layout: auto; text-align: left; text-overflow: clip; text-shadow: none; transform: none; transform-origin: 0px 0px; transform-style: flat; transition: all 0s ease 0s; unicode-bidi: normal; vertical-align: baseline; visibility: visible; width: auto; word-break: normal; z-index: auto; zoom: 1;&quot;&gt;&lt;span class=&quot;NormalTextRun SCXW78511259 BCX0&quot; style=&quot;font-size: 12px;&quot;&gt;Restaurant&lt;/span&gt;&lt;/span&gt;" style="shape=umlActor;verticalLabelPosition=bottom;verticalAlign=top;html=1;outlineConnect=0;fontSize=12;" vertex="1" parent="1">
          <mxGeometry x="120" y="260" width="30" height="60" as="geometry" />
        </mxCell>
        <mxCell id="_Z8c4-ehFcjaLU1eM7__-5" value="&lt;meta charset=&quot;utf-8&quot; style=&quot;font-size: 12px;&quot;&gt;&lt;span lang=&quot;EN-US&quot; class=&quot;TextRun BCX0 SCXW208734774&quot; style=&quot;animation: 0s ease 0s 1 normal none running none; appearance: none; backface-visibility: visible; background: none 0% 0% / auto repeat scroll padding-box border-box rgba(0, 0, 0, 0); border-color: rgb(0, 0, 0); border-collapse: collapse; border-width: 0px; border-style: none; border-spacing: 0px; border-radius: 0px; box-shadow: none; box-sizing: content-box; caption-side: top; clear: none; clip: auto; color: rgb(0, 0, 0); content: normal; cursor: text; direction: ltr; display: inline; empty-cells: show; float: none; font-family: calibri, calibri_embeddedfont, calibri_msfontservice, sans-serif; font-size: 12px; font-style: normal; font-weight: 400; height: auto; letter-spacing: normal; line-height: 18.3458px; list-style: outside none disc; margin: 0px; max-height: none; max-width: none; min-height: 0px; min-width: 0px; opacity: 1; outline: rgb(0, 0, 0) none 0px; overflow: visible; overflow-wrap: break-word; padding: 0px; perspective: none; perspective-origin: 0px 0px; position: static; resize: none; speak: normal; table-layout: auto; text-align: left; text-decoration: none; text-indent: 0px; text-overflow: clip; text-shadow: none; text-transform: none; transform: none; transform-origin: 0px 0px; transform-style: flat; transition: all 0s ease 0s; unicode-bidi: normal; vertical-align: baseline; visibility: visible; width: auto; word-break: normal; word-spacing: 0px; z-index: auto; zoom: 1;&quot;&gt;&lt;span class=&quot;NormalTextRun BCX0 SCXW208734774&quot; style=&quot;font-size: 12px;&quot;&gt;T-Low Service&lt;/span&gt;&lt;/span&gt;" style="shape=umlActor;verticalLabelPosition=bottom;verticalAlign=top;html=1;outlineConnect=0;fontSize=12;" vertex="1" parent="1">
          <mxGeometry x="930" y="240" width="30" height="60" as="geometry" />
        </mxCell>
        <mxCell id="_Z8c4-ehFcjaLU1eM7__-6" value="&lt;font style=&quot;font-size: 12px;&quot;&gt;&lt;span lang=&quot;EN-US&quot; class=&quot;TextRun SCXW257819092 BCX0&quot; style=&quot;margin: 0px; padding: 0px; text-align: left; background-color: rgb(255, 255, 255); line-height: 18.3458px; font-family: calibri, calibri_embeddedfont, calibri_msfontservice, sans-serif; font-size: 12px;&quot;&gt;&lt;span class=&quot;NormalTextRun SCXW257819092 BCX0&quot; style=&quot;margin: 0px; padding: 0px; font-size: 12px;&quot;&gt;Update menu&lt;/span&gt;&lt;/span&gt;&lt;span class=&quot;EOP SCXW257819092 BCX0&quot; style=&quot;margin: 0px; padding: 0px; text-align: left; background-color: rgb(255, 255, 255); line-height: 18.3458px; font-family: calibri, calibri_embeddedfont, calibri_msfontservice, sans-serif; font-size: 12px;&quot;&gt;&amp;nbsp;&lt;/span&gt;&lt;/font&gt;" style="ellipse;whiteSpace=wrap;html=1;fontSize=12;" vertex="1" parent="1">
          <mxGeometry x="480" y="260" width="130" height="80" as="geometry" />
        </mxCell>
        <mxCell id="_Z8c4-ehFcjaLU1eM7__-9" value="" style="endArrow=classic;html=1;rounded=0;exitX=1;exitY=0.3333333333333333;exitDx=0;exitDy=0;exitPerimeter=0;entryX=0;entryY=0.5;entryDx=0;entryDy=0;fontSize=12;" edge="1" parent="1" source="_Z8c4-ehFcjaLU1eM7__-4" target="_Z8c4-ehFcjaLU1eM7__-6">
          <mxGeometry width="50" height="50" relative="1" as="geometry">
            <mxPoint x="400" y="290" as="sourcePoint" />
            <mxPoint x="360" y="220" as="targetPoint" />
          </mxGeometry>
        </mxCell>
        <mxCell id="_Z8c4-ehFcjaLU1eM7__-11" value="" style="endArrow=classic;html=1;rounded=0;exitX=0;exitY=0.3333333333333333;exitDx=0;exitDy=0;exitPerimeter=0;entryX=1;entryY=0.5;entryDx=0;entryDy=0;fontSize=12;" edge="1" parent="1" source="_Z8c4-ehFcjaLU1eM7__-5" target="_Z8c4-ehFcjaLU1eM7__-6">
          <mxGeometry width="50" height="50" relative="1" as="geometry">
            <mxPoint x="400" y="290" as="sourcePoint" />
            <mxPoint x="450" y="240" as="targetPoint" />
          </mxGeometry>
        </mxCell>
        <mxCell id="_Z8c4-ehFcjaLU1eM7__-12" value="View menu" style="ellipse;whiteSpace=wrap;html=1;fontSize=12;" vertex="1" parent="1">
          <mxGeometry x="485" y="110" width="120" height="80" as="geometry" />
        </mxCell>
        <mxCell id="_Z8c4-ehFcjaLU1eM7__-13" value="Update notification" style="ellipse;whiteSpace=wrap;html=1;fontSize=12;" vertex="1" parent="1">
          <mxGeometry x="485" y="480" width="120" height="80" as="geometry" />
        </mxCell>
        <mxCell id="_Z8c4-ehFcjaLU1eM7__-14" value="" style="endArrow=classic;html=1;rounded=0;entryX=0;entryY=0.5;entryDx=0;entryDy=0;exitX=1;exitY=0.3333333333333333;exitDx=0;exitDy=0;exitPerimeter=0;fontSize=12;" edge="1" parent="1" source="_Z8c4-ehFcjaLU1eM7__-4" target="_Z8c4-ehFcjaLU1eM7__-12">
          <mxGeometry width="50" height="50" relative="1" as="geometry">
            <mxPoint x="130" y="270" as="sourcePoint" />
            <mxPoint x="450" y="250" as="targetPoint" />
          </mxGeometry>
        </mxCell>
        <mxCell id="_Z8c4-ehFcjaLU1eM7__-15" value="" style="endArrow=classic;html=1;rounded=0;entryX=1;entryY=0.5;entryDx=0;entryDy=0;exitX=0;exitY=0.3333333333333333;exitDx=0;exitDy=0;exitPerimeter=0;fontSize=12;" edge="1" parent="1" source="_Z8c4-ehFcjaLU1eM7__-5" target="_Z8c4-ehFcjaLU1eM7__-12">
          <mxGeometry width="50" height="50" relative="1" as="geometry">
            <mxPoint x="730" y="230" as="sourcePoint" />
            <mxPoint x="450" y="250" as="targetPoint" />
          </mxGeometry>
        </mxCell>
        <mxCell id="_Z8c4-ehFcjaLU1eM7__-16" value="" style="endArrow=classic;html=1;rounded=0;entryX=1;entryY=0.5;entryDx=0;entryDy=0;exitX=0;exitY=0.3333333333333333;exitDx=0;exitDy=0;exitPerimeter=0;fontSize=12;" edge="1" parent="1" source="_Z8c4-ehFcjaLU1eM7__-5" target="_Z8c4-ehFcjaLU1eM7__-13">
          <mxGeometry width="50" height="50" relative="1" as="geometry">
            <mxPoint x="700" y="170" as="sourcePoint" />
            <mxPoint x="450" y="290" as="targetPoint" />
            <Array as="points">
              <mxPoint x="820" y="480" />
            </Array>
          </mxGeometry>
        </mxCell>
        <mxCell id="_Z8c4-ehFcjaLU1eM7__-17" value="" style="endArrow=classic;html=1;rounded=0;entryX=0;entryY=0.5;entryDx=0;entryDy=0;exitX=1;exitY=0.3333333333333333;exitDx=0;exitDy=0;exitPerimeter=0;fontSize=12;" edge="1" parent="1" source="_Z8c4-ehFcjaLU1eM7__-4" target="_Z8c4-ehFcjaLU1eM7__-13">
          <mxGeometry width="50" height="50" relative="1" as="geometry">
            <mxPoint x="260" y="190" as="sourcePoint" />
            <mxPoint x="450" y="290" as="targetPoint" />
            <Array as="points">
              <mxPoint x="280" y="480" />
            </Array>
          </mxGeometry>
        </mxCell>
        <mxCell id="_Z8c4-ehFcjaLU1eM7__-18" value="View Updated Menu" style="ellipse;whiteSpace=wrap;html=1;fontSize=12;" vertex="1" parent="1">
          <mxGeometry x="485" y="650" width="120" height="80" as="geometry" />
        </mxCell>
        <mxCell id="_Z8c4-ehFcjaLU1eM7__-19" value="" style="endArrow=classic;html=1;rounded=0;exitX=1;exitY=0.3333333333333333;exitDx=0;exitDy=0;exitPerimeter=0;entryX=0;entryY=0.5;entryDx=0;entryDy=0;fontSize=12;" edge="1" parent="1" source="_Z8c4-ehFcjaLU1eM7__-4" target="_Z8c4-ehFcjaLU1eM7__-18">
          <mxGeometry width="50" height="50" relative="1" as="geometry">
            <mxPoint x="400" y="420" as="sourcePoint" />
            <mxPoint x="450" y="370" as="targetPoint" />
            <Array as="points">
              <mxPoint x="260" y="550" />
            </Array>
          </mxGeometry>
        </mxCell>
        <mxCell id="_Z8c4-ehFcjaLU1eM7__-22" value="Display validation error" style="ellipse;whiteSpace=wrap;html=1;fontSize=12;" vertex="1" parent="1">
          <mxGeometry x="617.5" y="400" width="120" height="80" as="geometry" />
        </mxCell>
        <mxCell id="_Z8c4-ehFcjaLU1eM7__-23" value="Validate menu item insert" style="ellipse;whiteSpace=wrap;html=1;fontSize=12;" vertex="1" parent="1">
          <mxGeometry x="350" y="390" width="120" height="80" as="geometry" />
        </mxCell>
        <mxCell id="_Z8c4-ehFcjaLU1eM7__-24" value="" style="html=1;labelBackgroundColor=#ffffff;startArrow=none;startFill=0;startSize=6;endArrow=classic;endFill=1;endSize=6;jettySize=auto;orthogonalLoop=1;strokeWidth=1;dashed=1;fontSize=12;rounded=0;" edge="1" parent="1" source="_Z8c4-ehFcjaLU1eM7__-6" target="_Z8c4-ehFcjaLU1eM7__-23">
          <mxGeometry width="60" height="60" relative="1" as="geometry">
            <mxPoint x="390" y="430" as="sourcePoint" />
            <mxPoint x="450" y="370" as="targetPoint" />
          </mxGeometry>
        </mxCell>
        <mxCell id="_Z8c4-ehFcjaLU1eM7__-25" value="&amp;lt;&amp;lt;include&amp;gt;&amp;gt;" style="edgeLabel;html=1;align=center;verticalAlign=middle;resizable=0;points=[];fontSize=12;" vertex="1" connectable="0" parent="_Z8c4-ehFcjaLU1eM7__-24">
          <mxGeometry x="-0.0657" y="1" relative="1" as="geometry">
            <mxPoint as="offset" />
          </mxGeometry>
        </mxCell>
        <mxCell id="_Z8c4-ehFcjaLU1eM7__-26" value="" style="html=1;labelBackgroundColor=#ffffff;startArrow=none;startFill=0;startSize=6;endArrow=classic;endFill=1;endSize=6;jettySize=auto;orthogonalLoop=1;strokeWidth=1;dashed=1;fontSize=12;rounded=0;" edge="1" parent="1" source="_Z8c4-ehFcjaLU1eM7__-22" target="_Z8c4-ehFcjaLU1eM7__-6">
          <mxGeometry width="60" height="60" relative="1" as="geometry">
            <mxPoint x="450" y="420" as="sourcePoint" />
            <mxPoint x="510" y="360" as="targetPoint" />
          </mxGeometry>
        </mxCell>
        <mxCell id="_Z8c4-ehFcjaLU1eM7__-27" value="&amp;lt;&amp;lt;extend&amp;gt;&amp;gt;" style="edgeLabel;html=1;align=center;verticalAlign=middle;resizable=0;points=[];fontSize=12;" vertex="1" connectable="0" parent="_Z8c4-ehFcjaLU1eM7__-26">
          <mxGeometry x="0.0371" y="2" relative="1" as="geometry">
            <mxPoint as="offset" />
          </mxGeometry>
        </mxCell>
        <mxCell id="_Z8c4-ehFcjaLU1eM7__-28" value="Customer" style="shape=umlActor;verticalLabelPosition=bottom;verticalAlign=top;html=1;outlineConnect=0;fontSize=12;" vertex="1" parent="1">
          <mxGeometry x="920" y="530" width="30" height="60" as="geometry" />
        </mxCell>
        <mxCell id="_Z8c4-ehFcjaLU1eM7__-29" value="" style="endArrow=classic;html=1;rounded=0;exitX=0;exitY=0.3333333333333333;exitDx=0;exitDy=0;exitPerimeter=0;entryX=1;entryY=0.5;entryDx=0;entryDy=0;fontSize=12;" edge="1" parent="1" source="_Z8c4-ehFcjaLU1eM7__-28" target="_Z8c4-ehFcjaLU1eM7__-18">
          <mxGeometry width="50" height="50" relative="1" as="geometry">
            <mxPoint x="740" y="580" as="sourcePoint" />
            <mxPoint x="790" y="530" as="targetPoint" />
          </mxGeometry>
        </mxCell>
        <mxCell id="_Z8c4-ehFcjaLU1eM7__-30" value="&lt;font style=&quot;font-size: 12px;&quot;&gt;&amp;lt;&amp;lt;include&amp;gt;&amp;gt;&lt;/font&gt;" style="html=1;labelBackgroundColor=#ffffff;startArrow=none;startFill=0;startSize=6;endArrow=classic;endFill=1;endSize=6;jettySize=auto;orthogonalLoop=1;strokeWidth=1;dashed=1;fontSize=12;rounded=0;entryX=0.5;entryY=1;entryDx=0;entryDy=0;exitX=0.5;exitY=0;exitDx=0;exitDy=0;" edge="1" parent="1" source="_Z8c4-ehFcjaLU1eM7__-13" target="_Z8c4-ehFcjaLU1eM7__-6">
          <mxGeometry width="60" height="60" relative="1" as="geometry">
            <mxPoint x="430" y="480" as="sourcePoint" />
            <mxPoint x="490" y="420" as="targetPoint" />
          </mxGeometry>
        </mxCell>
        <mxCell id="_Z8c4-ehFcjaLU1eM7__-31" value="&lt;font style=&quot;font-size: 12px;&quot;&gt;&amp;lt;&amp;lt;include&amp;gt;&amp;gt;&lt;/font&gt;" style="html=1;labelBackgroundColor=#ffffff;startArrow=none;startFill=0;startSize=6;endArrow=classic;endFill=1;endSize=6;jettySize=auto;orthogonalLoop=1;strokeWidth=1;dashed=1;fontSize=12;rounded=0;" edge="1" parent="1" source="_Z8c4-ehFcjaLU1eM7__-18">
          <mxGeometry width="60" height="60" relative="1" as="geometry">
            <mxPoint x="545" y="650" as="sourcePoint" />
            <mxPoint x="545" y="560" as="targetPoint" />
          </mxGeometry>
        </mxCell>
        <mxCell id="_Z8c4-ehFcjaLU1eM7__-32" value="&lt;font style=&quot;font-size: 12px;&quot;&gt;&amp;lt;&amp;lt;extend&amp;gt;&amp;gt;&lt;/font&gt;" style="html=1;labelBackgroundColor=#ffffff;startArrow=none;startFill=0;startSize=6;endArrow=classic;endFill=1;endSize=6;jettySize=auto;orthogonalLoop=1;strokeWidth=1;dashed=1;fontSize=12;rounded=0;exitX=0.5;exitY=0;exitDx=0;exitDy=0;" edge="1" parent="1" source="_Z8c4-ehFcjaLU1eM7__-6" target="_Z8c4-ehFcjaLU1eM7__-12">
          <mxGeometry width="60" height="60" relative="1" as="geometry">
            <mxPoint x="544.5" y="260" as="sourcePoint" />
            <mxPoint x="545" y="190" as="targetPoint" />
          </mxGeometry>
        </mxCell>
      </root>
    </mxGraphModel>
  </diagram>
</mxfile>
